<?xml version="1.0" standalone="no"?>
<!DOCTYPE svg PUBLIC "-//W3C//DTD SVG 20010904//EN"
 "http://www.w3.org/TR/2001/REC-SVG-20010904/DTD/svg10.dtd">
<svg version="1.0" xmlns="http://www.w3.org/2000/svg"
 width="500.000000pt" height="500.000000pt" viewBox="0 0 500.000000 500.000000"
 preserveAspectRatio="xMidYMid meet">
<metadata>
Created by potrace 1.16, written by Peter Selinger 2001-2019
</metadata>
<g transform="translate(0.000000,500.000000) scale(0.100000,-0.100000)"
fill="#000000" stroke="none">
<path d="M0 2500 l0 -2500 2500 0 2500 0 0 2500 0 2500 -2500 0 -2500 0 0
-2500z m2740 2140 c19 -7 44 -17 55 -21 11 -4 36 -11 55 -15 45 -8 223 -93
233 -110 4 -8 15 -14 22 -14 20 0 57 -38 50 -50 -4 -6 -15 -10 -26 -10 -10 0
-19 -7 -19 -15 0 -10 10 -15 29 -15 28 0 62 -21 109 -68 l24 -23 -29 6 c-15 4
-37 11 -48 15 -11 5 -31 10 -45 12 -15 2 -33 15 -45 35 -22 36 -40 43 -30 13
3 -11 2 -20 -4 -20 -6 0 -7 -15 -4 -36 4 -25 2 -39 -8 -45 -9 -5 0 -7 24 -6
21 2 42 9 47 17 8 13 13 13 30 2 12 -7 31 -10 42 -6 16 5 20 3 15 -9 -4 -11 3
-17 25 -21 28 -6 30 -8 25 -40 -6 -39 15 -66 52 -66 19 0 21 4 18 37 -3 26
-10 40 -26 46 -27 13 -27 33 0 40 22 6 27 1 98 -82 22 -25 28 -61 11 -61 -5 0
-10 9 -10 19 0 11 -4 23 -10 26 -5 3 -10 -1 -10 -9 0 -9 -7 -16 -15 -16 -8 0
-15 -4 -15 -10 0 -5 -9 -10 -19 -10 -22 0 -38 -47 -22 -63 8 -8 11 -4 11 12 0
13 4 20 11 16 6 -4 8 -13 5 -21 -3 -8 -1 -14 5 -14 6 0 13 9 16 20 4 14 14 20
34 20 15 0 31 5 34 10 12 20 23 9 53 -52 48 -99 62 -135 61 -155 -1 -16 -2
-16 -6 0 -7 26 -23 21 -23 -8 0 -32 -12 -32 -41 0 -31 32 -49 32 -49 0 0 -14
5 -25 11 -25 8 0 10 -16 6 -51 -5 -43 -4 -52 11 -56 23 -6 43 -48 29 -62 -18
-18 -36 -12 -50 16 l-14 26 -18 -26 c-19 -30 -12 -92 9 -84 10 4 14 -19 7 -40
-4 -13 3 -18 22 -15 21 3 20 2 -4 -15 -14 -10 -24 -24 -22 -30 8 -23 44 -14
73 17 15 17 24 30 19 30 -5 0 -9 5 -9 11 0 6 9 8 20 4 16 -5 20 -2 20 14 0 12
-3 21 -7 21 -5 0 -9 12 -9 26 -2 22 1 25 19 20 12 -3 29 1 38 10 15 13 17 13
22 -8 22 -90 18 -266 -4 -225 -6 9 -17 17 -25 17 -13 0 -12 -6 5 -34 22 -36
27 -90 12 -140 -6 -17 -19 -62 -31 -101 -23 -75 -50 -138 -62 -143 -5 -2 -8
-10 -8 -17 0 -7 -13 -18 -30 -24 -20 -6 -30 -17 -30 -30 0 -11 -8 -22 -18 -25
-11 -4 -25 -18 -32 -31 -7 -14 -17 -25 -22 -25 -4 0 -8 -6 -8 -14 0 -22 -22
-34 -67 -37 -43 -3 -66 13 -27 19 12 2 30 12 40 23 9 10 22 19 28 19 14 0 62
54 82 91 13 25 12 34 -4 80 -20 58 -37 72 -47 39 -6 -19 -9 -20 -23 -7 -10 8
-25 17 -36 21 -13 4 -16 11 -10 24 12 28 15 110 4 117 -13 8 -13 35 0 35 5 0
12 -11 16 -25 7 -29 16 -31 34 -10 9 11 9 15 1 15 -6 0 -16 12 -22 27 -8 22
-12 25 -20 13 -8 -13 -11 -13 -19 2 -15 25 -38 12 -46 -25 -3 -18 -11 -38 -17
-45 -8 -10 -3 -20 22 -41 36 -31 34 -61 -5 -61 -13 0 -24 -4 -24 -10 0 -5 -8
-10 -18 -10 -16 0 -18 7 -17 45 1 25 -1 45 -6 45 -4 0 -15 7 -24 17 -23 22
-82 23 -102 1 -15 -17 -14 -20 6 -37 18 -16 19 -20 6 -31 -17 -14 -20 -50 -4
-50 5 0 7 5 4 10 -4 6 5 20 19 31 14 11 26 29 26 40 0 11 5 17 10 14 6 -3 10
-15 10 -26 0 -10 6 -18 13 -16 6 1 12 -5 12 -13 0 -11 -9 -14 -32 -12 -27 3
-33 -1 -38 -21 -9 -33 -71 -43 -88 -15 -7 10 -18 18 -26 18 -10 0 -12 9 -6 36
7 42 25 74 40 74 12 0 16 24 16 82 -1 35 1 37 19 26 16 -10 22 -8 39 13 26 31
26 43 1 36 -14 -4 -23 3 -35 26 -14 27 -14 32 1 48 9 10 29 21 45 24 37 8 37
16 -1 38 -16 10 -30 24 -30 31 0 16 -27 15 -55 -1 -18 -10 -18 -13 -4 -30 8
-10 16 -33 18 -50 3 -44 -26 -45 -42 -3 -13 35 -57 44 -57 11 0 -25 -18 -39
-59 -43 -19 -2 -36 -9 -38 -15 -4 -12 54 -29 64 -19 4 3 13 0 22 -8 9 -8 23
-16 31 -19 8 -2 3 -3 -12 -1 -20 2 -29 -2 -33 -16 -4 -11 -11 -20 -16 -20 -5
0 -7 -17 -3 -40 5 -32 3 -40 -8 -40 -9 0 -22 7 -29 16 -18 22 -39 84 -28 84
11 0 -1 54 -13 58 -4 2 -8 9 -8 17 0 26 -32 39 -95 40 -54 0 -61 -2 -57 -17 2
-10 11 -18 18 -18 22 0 17 -17 -7 -23 -12 -3 -22 0 -26 9 -3 9 -16 14 -32 12
-21 -2 -27 2 -29 20 -5 31 -31 40 -48 17 -13 -17 -14 -17 -14 -2 0 20 -25 23
-37 5 -4 -7 -6 -20 -5 -29 2 -9 -4 -22 -13 -29 -8 -7 -15 -21 -15 -32 0 -15
-5 -18 -22 -13 -13 4 -29 13 -37 21 -15 14 -14 15 37 30 19 6 14 27 -6 22 -10
-3 -42 -2 -72 2 -38 5 -64 3 -85 -6 -29 -12 -29 -13 -7 -19 24 -8 30 -43 10
-63 -10 -10 -10 -17 0 -33 9 -14 11 -35 7 -60 -4 -24 -3 -45 4 -53 14 -17 -9
-39 -35 -34 -26 5 -28 24 -5 47 27 27 27 45 1 38 -11 -3 -22 -2 -25 3 -2 4
-20 15 -40 24 -19 9 -35 22 -35 29 0 7 -9 18 -19 24 -16 10 -20 9 -25 -3 -3
-8 -11 -13 -17 -12 -6 2 -13 -9 -14 -24 -2 -16 1 -28 6 -28 5 0 9 5 9 11 0 8
5 8 15 -1 8 -7 15 -16 15 -21 0 -5 -7 -9 -15 -9 -21 0 -19 -28 5 -75 11 -22
20 -42 20 -46 0 -4 -9 -5 -20 -2 -15 4 -20 0 -20 -13 -1 -18 -1 -18 -16 1 -9
12 -13 31 -10 48 3 15 1 27 -4 27 -6 0 -9 13 -8 28 1 15 -1 33 -5 39 -4 7 1
30 11 52 20 42 14 61 -18 61 -10 0 -21 14 -28 37 -12 40 -9 53 15 53 13 0 73
54 73 66 0 3 -9 15 -21 27 -37 39 -40 53 -18 78 12 14 17 29 13 38 -4 9 -9 36
-12 60 -5 48 8 64 45 54 17 -4 23 -1 23 11 0 9 8 16 20 16 17 0 18 -3 10 -26
-13 -33 -13 -44 1 -44 5 0 8 4 5 9 -8 13 30 20 69 14 27 -4 35 -1 45 17 9 17
8 26 -4 45 -20 30 -20 35 -1 35 9 0 18 -7 21 -15 10 -25 26 -5 19 25 -5 23 -2
31 15 40 21 11 21 12 3 25 -10 7 -21 11 -25 9 -4 -3 -16 0 -27 5 -13 8 -20 8
-23 0 -4 -13 -58 6 -58 21 0 7 6 8 17 2 13 -8 24 -3 46 19 23 24 27 34 22 59
-9 40 3 57 22 31 18 -27 49 -27 56 -1 3 11 1 37 -4 57 -13 59 -11 73 11 73 15
0 20 -7 20 -25 0 -14 9 -30 19 -37 19 -11 18 -12 -1 -27 -17 -14 -17 -18 -5
-35 14 -19 15 -19 27 4 19 35 47 63 58 56 8 -5 32 34 32 53 0 5 -11 9 -24 9
-13 0 -34 6 -45 15 -22 14 -22 15 6 20 15 3 37 1 49 -3 29 -11 74 -71 74 -98
0 -26 15 -29 25 -5 5 14 9 11 23 -17 24 -50 40 -66 48 -46 3 9 12 16 18 16 7
0 12 10 12 21 -2 38 20 31 57 -16 l35 -46 21 22 c29 32 26 39 -14 32 -33 -5
-35 -4 -35 21 0 21 5 26 24 26 13 0 26 -5 28 -12 3 -9 12 -9 36 1 18 7 32 15
32 17 0 11 -42 44 -56 44 -8 0 -12 5 -9 10 7 11 7 11 -44 15 -23 2 -38 -3 -49
-16 -17 -20 -52 -26 -52 -9 0 6 3 10 8 10 4 0 8 12 9 27 1 21 -9 37 -35 60
-21 18 -33 33 -28 33 5 0 3 6 -3 14 -6 8 -32 17 -56 20 -25 4 -47 11 -50 17
-9 14 -25 11 -25 -6 0 -8 -7 -15 -15 -15 -8 0 -15 -7 -15 -16 0 -9 -7 -14 -17
-12 -10 1 -24 -1 -30 -5 -17 -11 -17 -37 0 -37 7 0 18 -9 25 -20 21 -34 -24
-25 -49 10 -24 31 -44 38 -127 44 -48 4 -54 2 -64 -20 -14 -29 -22 -30 -48 -4
-11 11 -27 20 -35 20 -8 0 -12 6 -9 14 10 27 -16 27 -61 1 -32 -20 -45 -33
-45 -50 0 -12 -7 -28 -15 -35 -9 -7 -14 -19 -11 -26 5 -13 -27 -48 -36 -39 -2
3 -5 -11 -6 -30 -1 -25 3 -35 14 -35 8 0 19 -11 26 -24 6 -14 20 -26 32 -28
11 -2 21 -10 21 -18 0 -8 4 -21 9 -28 12 -20 -14 -44 -40 -38 -14 4 -26 1 -31
-7 -12 -21 -48 -37 -70 -31 -12 3 -24 1 -27 -5 -11 -17 -34 -13 -38 7 -3 16
-8 17 -35 10 -22 -6 -33 -15 -33 -27 0 -23 -25 -46 -35 -31 -3 5 1 17 9 26 29
29 16 37 -18 11 -18 -15 -37 -23 -41 -19 -4 4 -4 -7 -1 -25 9 -38 -14 -88 -43
-96 -15 -3 -21 1 -23 17 -3 18 -9 21 -45 19 -33 -1 -43 2 -43 14 0 8 9 17 20
20 13 3 20 14 20 28 0 13 7 25 15 29 8 3 15 1 15 -5 0 -5 6 -9 13 -8 25 3 36
-2 40 -18 2 -10 2 -4 0 14 -2 17 1 34 6 38 11 6 4 35 -9 35 -4 0 -10 -9 -13
-20 -5 -20 -37 -29 -37 -11 0 5 -9 7 -21 4 -20 -6 -20 -5 -6 24 15 28 47 62
47 49 0 -3 27 8 59 25 69 36 90 71 73 117 -6 15 -10 51 -8 80 2 51 5 56 57
103 30 26 58 48 63 49 5 0 32 18 60 39 52 40 181 111 203 111 6 0 13 -6 16
-12 3 -10 10 -8 25 6 18 16 24 17 37 6 17 -14 25 -10 29 12 4 28 18 36 72 43
32 4 67 11 78 16 30 13 354 4 396 -11z m-10 -1395 c6 -15 20 -27 37 -30 15 -4
36 -11 46 -16 13 -7 25 -6 41 4 27 18 51 4 61 -36 4 -14 16 -29 26 -32 26 -9
24 -31 -6 -51 -26 -17 -45 -12 -45 13 0 10 -6 13 -16 9 -10 -4 -19 4 -28 24
-13 32 -26 30 -26 -4 0 -12 14 -33 32 -48 l33 -27 -24 -23 -24 -23 6 22 c3 13
1 26 -4 29 -5 3 -9 1 -9 -4 0 -6 -13 -15 -30 -21 -16 -5 -30 -16 -30 -24 0 -7
-12 -25 -27 -39 -23 -22 -31 -24 -44 -15 -9 7 -19 22 -23 35 -4 12 -14 22 -22
22 -19 0 -18 -39 1 -46 8 -4 15 -11 15 -16 0 -15 -60 -68 -77 -68 -22 0 -62
40 -78 79 -18 41 -19 38 6 44 12 3 18 10 15 15 -3 6 10 20 30 31 28 17 34 25
28 39 -4 9 -7 32 -7 50 1 23 -4 35 -20 44 -22 11 -22 12 7 19 17 5 37 4 48 -2
11 -6 20 -9 21 -7 1 2 8 13 15 25 6 13 12 30 12 38 0 26 49 19 60 -10z m-366
-1474 c58 -137 106 -252 106 -255 0 -3 -12 -6 -27 -6 -26 0 -31 8 -67 95 l-40
95 -80 0 -81 0 -39 -95 c-36 -90 -40 -95 -68 -95 -16 0 -28 4 -26 9 19 49 212
501 214 501 1 0 50 -112 108 -249z m638 213 c36 -19 43 -33 25 -51 -14 -14
-19 -14 -50 1 -47 22 -79 20 -111 -5 -19 -15 -26 -30 -26 -53 0 -41 16 -54
103 -90 74 -31 113 -69 123 -120 27 -146 -162 -215 -283 -103 -21 19 -22 22
-7 38 15 17 18 16 62 -12 49 -31 89 -36 125 -17 74 39 56 131 -31 159 -103 33
-152 81 -152 147 0 105 115 160 222 106z m-1548 -170 c43 -102 79 -184 81
-182 2 2 38 85 80 186 75 175 78 182 106 182 25 0 28 -2 20 -22 -16 -40 -203
-483 -206 -486 -1 -2 -189 435 -212 496 -3 8 5 12 24 12 28 0 31 -6 107 -186z
m2266 161 c0 -25 -1 -25 -80 -25 l-80 0 0 -220 0 -220 -30 0 -30 0 0 220 0
220 -85 0 c-84 0 -85 0 -85 25 l0 25 195 0 195 0 0 -25z m-1215 -847 c98 -106
180 -194 184 -196 3 -1 5 81 3 183 l-3 185 31 0 30 0 0 -252 0 -253 -78 80
c-43 44 -126 131 -185 194 l-107 115 0 -187 0 -187 -30 0 -30 0 0 255 c0 140
2 255 4 255 2 0 84 -87 181 -192z m1482 150 c28 -16 31 -23 23 -39 -13 -23
-19 -23 -56 -4 -68 35 -134 6 -134 -58 0 -42 19 -59 93 -87 67 -25 121 -74
130 -118 7 -32 -6 -88 -26 -113 -53 -68 -172 -68 -257 0 -24 19 -24 20 -6 40
l18 20 34 -26 c20 -15 52 -28 79 -30 39 -5 47 -2 75 25 32 33 35 46 20 87 -7
19 -31 36 -93 64 -108 50 -131 77 -125 149 4 40 11 60 30 79 45 44 131 49 195
11z m-2912 -160 c42 -101 78 -184 80 -186 2 -2 38 80 81 182 76 180 79 186
107 186 23 0 28 -3 23 -17 -23 -59 -209 -493 -211 -491 -2 3 -146 341 -200
471 l-15 37 29 0 c28 0 31 -6 106 -182z m895 157 l0 -24 -122 -3 -123 -3 -3
-77 -3 -78 111 0 110 0 0 -30 0 -30 -110 0 -110 0 0 -80 0 -80 130 0 130 0 0
-30 0 -30 -155 0 -155 0 0 245 0 245 150 0 150 0 0 -25z m1180 -155 c0 -112 4
-188 11 -204 25 -54 124 -71 184 -32 36 24 45 74 45 254 l0 162 25 0 25 0 0
-194 c0 -184 -1 -195 -23 -226 -33 -50 -77 -72 -146 -73 -67 0 -124 24 -155
66 -19 26 -21 45 -24 228 l-3 199 30 0 31 0 0 -180z"/>
<path d="M3080 4121 c-17 -32 -12 -79 11 -102 29 -29 44 -76 30 -93 -16 -20
-3 -26 32 -14 27 10 33 8 50 -13 13 -16 21 -20 24 -11 3 6 16 12 29 12 17 0
28 -8 36 -27 10 -24 12 -25 16 -9 2 11 -2 24 -10 30 -21 16 -31 48 -17 57 17
10 68 -23 71 -46 2 -12 11 -20 23 -20 15 0 21 9 26 39 5 34 3 43 -19 63 -14
13 -32 23 -41 23 -10 0 -22 5 -28 11 -9 9 -20 9 -43 0 -32 -11 -50 -8 -50 9 0
12 -77 90 -89 90 -6 0 -11 5 -11 10 0 18 -29 11 -40 -9z"/>
<path d="M2667 3939 c3 -11 -3 -23 -16 -31 -12 -7 -21 -16 -21 -20 0 -14 34
-48 49 -48 7 0 19 -6 25 -14 12 -15 92 -37 101 -28 3 3 -2 16 -11 29 -14 22
-14 27 0 48 21 31 20 35 -4 35 -11 0 -20 4 -20 10 0 5 -11 12 -25 16 -14 3
-25 10 -25 14 0 5 -13 8 -29 8 -22 -1 -27 -5 -24 -19z"/>
<path d="M2557 3823 c-9 -15 -23 -44 -33 -63 -10 -19 -29 -46 -41 -60 -13 -14
-23 -28 -23 -33 0 -4 -4 -6 -9 -3 -5 3 -22 -1 -37 -9 l-29 -15 25 -1 c14 -1
39 -3 55 -5 46 -5 66 -6 113 -2 44 4 65 -11 55 -39 -6 -15 13 -17 22 -3 10 16
43 12 53 -6 7 -13 13 -14 31 -5 12 7 27 11 34 9 23 -4 56 13 51 27 -4 8 7 17
30 25 34 11 54 39 41 59 -3 5 -1 12 4 16 5 3 13 -1 18 -9 5 -9 13 -12 21 -7
20 12 4 61 -20 61 -11 0 -26 7 -34 15 -13 13 -18 12 -37 -8 -12 -12 -33 -28
-46 -36 -23 -12 -27 -11 -46 13 -18 22 -29 26 -73 26 -40 0 -52 -4 -52 -15 0
-8 -4 -15 -10 -15 -16 0 -50 39 -50 58 0 13 2 14 9 4 7 -11 9 -11 13 0 3 8 0
22 -7 32 -12 16 -14 15 -28 -11z"/>
</g>
</svg>
